<?xml version="1.0" encoding="UTF-8" standalone="no"?>
<!DOCTYPE svg PUBLIC "-//W3C//DTD SVG 1.1//EN" "http://www.w3.org/Graphics/SVG/1.1/DTD/svg11.dtd">
<svg width="100%" height="100%" viewBox="0 0 752 679" version="1.1" xmlns="http://www.w3.org/2000/svg" xmlns:xlink="http://www.w3.org/1999/xlink" xml:space="preserve" xmlns:serif="http://www.serif.com/" style="fill-rule:evenodd;clip-rule:evenodd;stroke-linejoin:round;stroke-miterlimit:2;">
    <g transform="matrix(1,0,0,1,-964.933,-752.333)">
        <g transform="matrix(0.863951,0,0,0.789006,135.603,36.0802)">
            <path d="M1394.95,907.792C1421.2,909.104 1477.4,912.853 1545.16,941.033C1561.26,947.727 1600.21,964.186 1644.26,997.916C1649.95,1002.27 1667.54,1015.28 1691.97,1039.6C1692.79,1040.42 1704.54,1051.83 1720.88,1071.31C1789.72,1153.36 1807.03,1237.47 1811.98,1264.87C1834.42,1389.12 1799.86,1511.4 1722.74,1604.63C1632.12,1714.18 1491.61,1772.47 1346.24,1757.17C1235.41,1745.51 1161.97,1694.76 1138.36,1677.71C1006.11,1582.2 941.13,1422.64 967.786,1264.08C975.459,1218.43 988.882,1183.67 999.787,1159.87C1066.27,1014.78 1211.7,913.54 1381.07,908.009C1386.51,907.832 1393.84,907.798 1394.95,907.792ZM1394.95,983.829C1394.56,983.835 1394.16,983.838 1393.76,983.839C1268.25,984.228 1161.37,1044.88 1096.55,1132.54C1080.82,1153.81 1056.66,1190.88 1040.98,1244.91C1034.67,1266.65 1008.99,1358.91 1050.63,1466.82C1087.69,1562.83 1167.42,1642.69 1272.54,1679.49C1386.22,1719.28 1523.99,1704.32 1631.08,1621.07C1694.92,1571.44 1741.26,1502.49 1761.14,1423.2C1770.04,1387.73 1785.53,1302.98 1746.77,1205.45C1738.65,1185.04 1720.45,1144.18 1682.36,1100.77C1676.3,1093.87 1668.24,1085.94 1666.97,1084.69C1661.6,1079.41 1650.64,1068.72 1632.29,1054.98C1623.01,1048.04 1588,1021.96 1534.32,1003.25C1478.54,983.823 1427.34,983.532 1419.92,983.412C1411.32,983.273 1404.07,983.456 1399.63,983.624C1398.28,983.729 1396.81,983.796 1395.21,983.824C1395.04,983.834 1394.95,983.838 1394.95,983.837C1394.95,983.835 1394.95,983.832 1394.95,983.829Z"/>
        </g>
    </g>
</svg>
